/* XPM */
static char *ff07842c11994305907ee6551a8902df[] = {
/* columns rows colors chars-per-pixel */
"16 16 189 2 ",
"   c #CF7712",
".  c #D07910",
"X  c #D78416",
"o  c #D4811C",
"O  c #D4851F",
"+  c #D6881C",
"@  c #DB8F1F",
"#  c #E18701",
"$  c #E38906",
"%  c #E08B09",
"&  c #E29617",
"*  c #E29B10",
"=  c #E39C17",
"-  c #EF9E11",
";  c #E2951A",
":  c #E79619",
">  c #E5971B",
",  c #E89E18",
"<  c #F3A00E",
"1  c #EDA814",
"2  c #F0A414",
"3  c #F4AA10",
"4  c #F7AB1B",
"5  c #F7B517",
"6  c #FFBB15",
"7  c #FFBB18",
"8  c #FCBA1C",
"9  c #D78720",
"0  c #D48522",
"q  c #D58C20",
"w  c #D88821",
"e  c #DA8B22",
"r  c #D98E22",
"t  c #DB8E22",
"y  c #DB8E25",
"u  c #D98C26",
"i  c #DF9121",
"p  c #DC9023",
"a  c #DD9023",
"s  c #DD9322",
"d  c #DF9322",
"f  c #DE9422",
"g  c #DD932C",
"h  c #D8972E",
"j  c #DE9F31",
"k  c #E29821",
"l  c #E49C20",
"z  c #E19A27",
"x  c #E39E2C",
"c  c #E09E2F",
"v  c #E39C32",
"b  c #DEA237",
"n  c #DFA138",
"m  c #E2A324",
"M  c #EEA726",
"N  c #EDAB27",
"B  c #E4A72A",
"V  c #EAA629",
"C  c #E9A12D",
"Z  c #F2AF21",
"A  c #F0AE23",
"S  c #F6AE29",
"D  c #EFB227",
"F  c #FCB824",
"G  c #F2B62A",
"H  c #F1B72E",
"J  c #F6B62F",
"K  c #F9BA2A",
"L  c #FBBE2A",
"P  c #FDBD2A",
"I  c #FCBE2D",
"U  c #E5A232",
"Y  c #EDAF31",
"T  c #EDB836",
"R  c #EFBF35",
"E  c #EEB539",
"W  c #F0B530",
"Q  c #F5BB35",
"!  c #F3B839",
"~  c #F5BC3B",
"^  c #FFC018",
"/  c #FFC326",
"(  c #FFCE23",
")  c #FFC924",
"_  c #FFC926",
"`  c #F7C128",
"'  c #FFCB29",
"]  c #FDC82D",
"[  c #FFD025",
"{  c #FFD32F",
"}  c #F7C032",
"|  c #FFC233",
" . c #FDC736",
".. c #F3CB33",
"X. c #FFCD32",
"o. c #FECC38",
"O. c #FCD530",
"+. c #FFD531",
"@. c #FFD433",
"#. c #FFD733",
"$. c #FFD832",
"%. c #FFDD3A",
"&. c #FFDF3A",
"*. c #BA894D",
"=. c #BC9252",
"-. c #C99544",
";. c #C89652",
":. c #C99C59",
">. c #DBAA41",
",. c #D6AB4D",
"<. c #C6A05C",
"1. c #DEAC56",
"2. c #E1AC44",
"3. c #EDB542",
"4. c #E2B848",
"5. c #E0B653",
"6. c #E6B452",
"7. c #D2A968",
"8. c #D3AE6B",
"9. c #C2B36D",
"0. c #DAB866",
"q. c #E0B56A",
"w. c #E0BD73",
"e. c #E7C54B",
"r. c #EFC149",
"t. c #FCC740",
"y. c #FFCC40",
"u. c #F8CF44",
"i. c #F7C24E",
"p. c #F3C64D",
"a. c #FDCF48",
"s. c #FDCF4A",
"d. c #EDD24C",
"f. c #FFD045",
"g. c #F5C354",
"h. c #F2CD53",
"j. c #F9CD54",
"k. c #F0C65C",
"l. c #F0CA58",
"z. c #F4CE59",
"x. c #F6D15A",
"c. c #FFDF5A",
"v. c #FFEA50",
"b. c #FFE25F",
"n. c #D7C778",
"m. c #EDC860",
"M. c #F4C864",
"N. c #FED361",
"B. c #F4D864",
"V. c #E2C579",
"C. c #E9C77F",
"Z. c #F1C879",
"A. c #E7D072",
"S. c #FCD771",
"D. c #FFE564",
"F. c #FFEA65",
"G. c #FFE96C",
"H. c #FFEC7E",
"J. c #FFF177",
"K. c #C1B986",
"L. c #D6CA81",
"P. c #E9D784",
"I. c #F0D089",
"U. c #F2D78C",
"Y. c #F4DE8D",
"T. c #F8DB96",
"R. c #F8E083",
"E. c #FAE58F",
"W. c #FFEA8F",
"Q. c #FFF186",
"!. c #F2E19A",
"~. c #FFED9A",
"^. c #FFF294",
"/. c #FFF59C",
"(. c #F1D9A0",
"). c #F6E8AD",
"_. c #FFFDAA",
"`. c #F5E9BB",
"'. c #FFF9BD",
"]. c #F1E5C4",
"[. c #FFFFCA",
"{. c #ECE5D8",
"}. c #FFFFE1",
"|. c #FFFFE2",
" X c #FFFFE8",
".X c #FFFFEA",
"XX c #FFFFEF",
"oX c #FFFFF2",
"OX c None",
/* pixels */
"OXOXOXOXOXOXK.L.n.9.OXOXOXOXOXOX",
"OXOXOXOXP.F.v.&.#.+.' 4.OXOXOXOX",
"OXOXOXD.&.[ X.f.y.| P 6 i.OXOXOX",
"OXOXu.( / N.W.H.b.a.J M - 3.OXOX",
"OXl.^ F S._.G.h.p.)  .V i # >.OX",
"OX8 4 g.Q.{ r.{.].W A N i o % OX",
"5.2 C j.+.G (.T.I.C.& k t t $ =.",
"6.@ v t.5 k.M.* m f i 9 0 l < -.",
"q.0 g ! , p.E q n . 9 r s A 6 ,.",
"w.+ y U & c x.j h 2.i S D I ( 0.",
"OX= > c u   b B.z.~ I ] R b.s.OX",
"OXB 3 K z X : Y Q ) O.e.R./.1.OX",
"OXOX1 +.o.T H ` ..d.A.).|.Z.OXOX",
"OXOX;.Q J.^.E.Y.!.`..XoXU.*.OXOX",
"OXOXOXOXm.~.[. XXX|.'.V.OXOXOXOX",
"OXOXOXOXOXOX:.7.8.<.OXOXOXOXOXOX"
};
