/* XPM */
static char *f7b9c866b5344dd4a03cef1d08652daf[] = {
/* columns rows colors chars-per-pixel */
"64 64 256 2 ",
"   c #BA6B08",
".  c #B66C16",
"X  c #BC7B1A",
"o  c #B87519",
"O  c #A66316",
"+  c #9F7733",
"@  c #B87B23",
"#  c #B77E33",
"$  c #A97D2A",
"%  c #A45A08",
"&  c #C87706",
"*  c #D57804",
"=  c #C47312",
"-  c #C77C18",
";  c #D17E15",
":  c #C76E01",
">  c #E27B00",
",  c #9F7A49",
"<  c #A27B46",
"1  c #B1831B",
"2  c #BA8725",
"3  c #BB9526",
"4  c #BB8636",
"5  c #B69435",
"6  c #A98935",
"7  c #DC8A0C",
"8  c #D7860A",
"9  c #CC831D",
"0  c #CB8B1C",
"q  c #C78518",
"w  c #D4841D",
"e  c #D38B1C",
"r  c #DA8C1C",
"t  c #D88517",
"y  c #DC921B",
"u  c #D99719",
"i  c #D5960E",
"p  c #E28C0A",
"a  c #E9970A",
"s  c #E28D1A",
"d  c #E49416",
"f  c #E59B1C",
"g  c #E59719",
"h  c #F6AB0A",
"j  c #EBA51A",
"k  c #F4A819",
"l  c #EBB319",
"z  c #FBB818",
"x  c #EFAC0D",
"c  c #C38524",
"v  c #C68B29",
"b  c #D48B21",
"n  c #DA8D21",
"m  c #D48420",
"M  c #CD932B",
"N  c #C99626",
"B  c #DE9223",
"V  c #D69828",
"C  c #C48B32",
"Z  c #CB9635",
"A  c #D79735",
"S  c #D88F30",
"D  c #E19523",
"F  c #E49B24",
"G  c #EA9D25",
"H  c #E69F2F",
"J  c #E09D30",
"K  c #D8A728",
"L  c #C8A738",
"P  c #D9A739",
"I  c #CCB433",
"U  c #D8B438",
"Y  c #CEA92C",
"T  c #E6A125",
"R  c #EAA324",
"E  c #EDAA25",
"W  c #EAA429",
"Q  c #EEAB29",
"!  c #E3AB27",
"~  c #F2AD25",
"^  c #F1AD2A",
"/  c #F4A827",
"(  c #E6B62B",
")  c #F5B226",
"_  c #FCBC24",
"`  c #F4B32C",
"'  c #F8B42B",
"]  c #F6BA2E",
"[  c #FABB2C",
"{  c #F9B524",
"}  c #E8AA39",
"|  c #EDB836",
" . c #F5BB32",
".. c #FABD31",
"X. c #F6B736",
"o. c #D9A61F",
"O. c #FFC51C",
"+. c #DEC43A",
"@. c #FEC42C",
"#. c #FDC92B",
"$. c #FDC523",
"%. c #FFD62E",
"&. c #E9C338",
"*. c #FDC434",
"=. c #FFC936",
"-. c #FFCC3A",
";. c #F7C938",
":. c #FFD336",
">. c #FFD23D",
",. c #FFDA3C",
"<. c #F9DA39",
"1. c #EEC42E",
"2. c #FFE636",
"3. c #AA8957",
"4. c #B89759",
"5. c #B28F49",
"6. c #BDA44D",
"7. c #B89868",
"8. c #AE9167",
"9. c #B6A376",
"0. c #BCA26E",
"q. c #C79949",
"w. c #C39B59",
"e. c #D09843",
"r. c #C8AA48",
"t. c #D6A847",
"y. c #DDB445",
"u. c #CAA857",
"i. c #D5AB56",
"p. c #DAB759",
"a. c #CBB059",
"s. c #E3AB47",
"d. c #E6B84A",
"f. c #E7B757",
"g. c #EAB04E",
"h. c #C8A969",
"j. c #D8BB69",
"k. c #C7AD79",
"l. c #CBB57A",
"z. c #D6B775",
"x. c #CFB168",
"c. c #E7BC66",
"v. c #EEC54B",
"b. c #FFCD43",
"n. c #F7C749",
"m. c #FFD443",
"M. c #FFDB44",
"N. c #FFD44B",
"B. c #FFDA4B",
"V. c #F6D84A",
"C. c #EBC353",
"Z. c #EBC959",
"A. c #F6CC59",
"S. c #FFD354",
"D. c #FFDB52",
"F. c #FED55B",
"G. c #FFDC5C",
"H. c #F1D05A",
"J. c #EDD34A",
"K. c #FEE344",
"L. c #FEE34C",
"P. c #FEEC49",
"I. c #FFE352",
"U. c #FFE25D",
"Y. c #FFEB57",
"T. c #FFF354",
"R. c #FFFB5C",
"E. c #FFF45A",
"W. c #FFF04A",
"Q. c #DAC478",
"!. c #DBC16B",
"~. c #EAC669",
"^. c #F4C769",
"/. c #FEDB63",
"(. c #FFDB6B",
"). c #F9D564",
"_. c #E9C778",
"`. c #F4CC74",
"'. c #FFDD74",
"]. c #FFDE7B",
"[. c #F6D478",
"{. c #EED477",
"}. c #FFE363",
"|. c #FFEA65",
" X c #FFE36B",
".X c #FFED6B",
"XX c #FFF665",
"oX c #FFE673",
"OX c #FFE17C",
"+X c #FFEA7C",
"@X c #FCE876",
"#X c #FFFA79",
"$X c #DFC051",
"%X c #D4BA85",
"&X c #D3BB91",
"*X c #C3AD82",
"=X c #CCBBB8",
"-X c #DBC686",
";X c #DAC596",
":X c #E9CB84",
">X c #EBD58A",
",X c #F8DB88",
"<X c #E8D496",
"1X c #F5DA95",
"2X c #E3CE9D",
"3X c #FEE384",
"4X c #FFEC84",
"5X c #FEE38B",
"6X c #FEEC8C",
"7X c #F3E689",
"8X c #FFF789",
"9X c #FEE594",
"0X c #FEE69B",
"qX c #FEEA9C",
"wX c #FBE994",
"eX c #FFF291",
"rX c #FFF49C",
"tX c #FFFB9B",
"yX c #DACCA8",
"uX c #E4D6A7",
"iX c #E8DBB5",
"pX c #F1DEAB",
"aX c #EDE9A9",
"sX c #FFEAA4",
"dX c #FFEBAB",
"fX c #F8E5A8",
"gX c #FFFCAB",
"hX c #FEF6A6",
"jX c #EAE3BA",
"kX c #FFEDB3",
"lX c #FFEFBA",
"zX c #F5E4B3",
"xX c #FFF4B4",
"cX c #FFFEB2",
"vX c #FEF1BD",
"bX c #FFFDBC",
"nX c #F5F3B5",
"mX c #E7DDC6",
"MX c #FFF3C3",
"NX c #FFFDC2",
"BX c #FFF6CA",
"VX c #FEFACD",
"CX c #F3F1C7",
"ZX c #FEFDD2",
"AX c #FFFFDC",
"SX c #F6F7D6",
"DX c #EDEAD0",
"FX c #FEFFE3",
"GX c #FFFEEC",
"HX c #F6FCE7",
"JX c #FEFFF4",
"KX c #FFFFFD",
"LX c #F5FCFF",
"PX c #EAE4E8",
"IX c #E0DBEC",
"UX c None",
/* pixels */
"UXUXUXUXUXUXUXUXUXUXUXUXUXUXUXUXUXUXUXUXUXUXUXUXUXUXUXUXUXUXUXUXUXUXUXUXUXUXUXUXUXUXUXUXUXUXUXUXUXUXUXUXUXUXUXUXUXUXUXUXUXUXUXUX",
"UXUXUXUXUXUXUXUXUXUXUXUXUXUXUXUXUXUXUXUXUXUXUXUXUXUX*X%X>X>XwX9X5X,X1X_.-Xl.UXUXUXUXUXUXUXUXUXUXUXUXUXUXUXUXUXUXUXUXUXUXUXUXUXUX",
"UXUXUXUXUXUXUXUXUXUXUXUXUXUXUXUXUXUXUXUXUXUX*X:XrXgXNXNXcXgXwXwX7X4X+X8X#X8X#X X_.k.UXUXUXUXUXUXUXUXUXUXUXUXUXUXUXUXUXUXUXUXUXUX",
"UXUXUXUXUXUXUXUXUXUXUXUXUXUXUXUXUXUXUXUX-XrXNXZXnX-Xx.a.6.r.r.L r.L L L L L U v.Y.R.Y.!.9.UXUXUXUXUXUXUXUXUXUXUXUXUXUXUXUXUXUXUX",
"UXUXUXUXUXUXUXUXUXUXUXUXUXUXUXUXUXUX>XcXAXnXl.6.6.L U +.J.V.L.I.L.L.M.J.&.U Y L N Y ( W.T.H.9.UXUXUXUXUXUXUXUXUXUXUXUXUXUXUXUXUX",
"UXUXUXUXUXUXUXUXUXUXUXUXUXUXUXUX:XcXAXuX6.6.L +.P.R.XXY.U.I.D.B.B.B.B.B.I.L.P.M.&.Y 3 N o.K.E.~.UXUXUXUXUXUXUXUXUXUXUXUXUXUXUXUX",
"UXUXUXUXUXUXUXUXUXUXUXUXUXUXz.qXAXaX4.5 I Y.XXE.I.D.L.B.B.B.B.B.N.m.b.m.>.>.-.-.-.,.>.( N 3 U XX.Xl.UXUXUXUXUXUXUXUXUXUXUXUXUXUX",
"UXUXUXUXUXUXUXUXUXUXUXUXUX:XbXZXh.5 I T.XXD.B.D.D.B.V.B.B.N.M.>.m.>.>.>.-.-.-.=.=.=.*.>.,.! 0 5 OXtX{.UXUXUXUXUXUXUXUXUXUXUXUXUX",
"UXUXUXUXUXUXUXUXUXUXUXUX:XZXaX5.3 P.XXD.B.B.B.B.B.M.M.m.b.>.>.>.-.-.-.=.=.=.=.=.*.*.=.*.*.=.:.u 2 Q.VX1XUXUXUXUXUXUXUXUXUXUXUXUX",
"UXUXUXUXUXUXUXUXUXUXUXrXZX-X1 +.R.I.B.B.B.B.M.m.b.b.>.>.>.-.-.-.=.=.=.=.=.*.*...*.....] ....] =.) X k.GXbX3.UXUXUXUXUXUXUXUXUXUX",
"UXUXUXUXUXUXUXUXUXUXwXNXl.1 <.E.N.M.N.m.m.>.b.>.>.>.-.=.-.=.*.@.*.*.*.*.*.*.*.*.........] X.X.` *._ & 0.JXMX8.UXUXUXUXUXUXUXUXUX",
"UXUXUXUXUXUXUXUXUX6XbXx.1 K.L.V.M.m.b.>.>.>.>.-.-.-.#.z z _ [ *.*.[ [ { { { ]  .....] X.` ] ` ` ` ` $.* 7.JXMX8.UXUXUXUXUXUXUXUX",
"UXUXUXUXUXUXUXUX[.cXj.1 K.B.>.>.-.b.>.-.-.=.-.*.z z b.).].5XwXwX5X3X+X).A.n.] / ' ' ' ` ` ` ` ^ ^ ^ Q [ & 7.AX>XUXUXUXUXUXUXUXUX",
"UXUXUXUXUXUXUX`.gXQ.1 <.K.>.>.>.-.-.=.=.-.#.z [ ).9XxXMXbXcXrXrXeX4X4X+X+X XF.n.X.Q Q ` ^ Q Q Q Q W W W ) : x.NX_.UXUXUXUXUXUXUX",
"UXUXUXUXUXUXl.8X@X$ ;.M.-.-.;.=.*.-.*.*.z z ).kXZXbXrXeX4X4X+X+X.X X}.G.D.M.B.S.N.X.Q W Q Q Q W W W W W W k . !.tXz.UXUXUXUXUXUX",
"UXUXUXUXUXUX+X8X5 ! M.*.*.=.*.=.-.*.*.z *.dXZXcXeXeX6X4X+XoXoX}./.G.D.N.N.b.>.-.=.>.n.^ F W W W T T W F F T u o ).}.UXUXUXUXUXUX",
"UXUXUXUXUX_.8Xt.0 2.*.=.*.*.*.*.*...h F.VXNXeXeX4X4X4XoX X X/.G.D.D.N.b.-.-.=.-.-.*.=.=.` D T T T F F F D D W ; c E.Z.UXUXUXUXUX",
"UXUXUXUXUX@X).2 *.=.*.*.*.*.*.*...h [.ZXhX4X4X4X+XoX X XG.G.D.V.K.z ] >.-.*.=.=.*.1.@.*.;.` B D F D J D D D D G . K W.0.UXUXUXUX",
"UXUXUXUX).#X3 o.>.*.*.*.........h [.ZXeX4X4X+XoX X X}.D.D.B.B.#.i 7.j.$.;.*.=..... .] ] ] ..Q B B D B D B B B B m o %.v.UXUXUXUX",
"UXUXUXUX|.v.2 =.*...] ] ] ] X.h ^.ZX4X+X+XoX X XG.G.N.I.:.$.#.q.=XLX:Xz =...1.] ] ] ] ` ` ` ] T B B B B B B n n G . y %.*XUXUXUX",
"UXUXUX:XR.N u =.] ..] X.] ] k X.VX4XoXoX X/.G.D.B.N.M.l C x.j &XLXKXc.z @. .] ] ] ` ` ` ( Q ^ ^ B n B n n n n n B ; X $.d.UXUXUX",
"UXUXUX/.m.2 @.] X.] ] ` ^ ` j fXtX}. X}.G.D.D.N.m.>.! 7.IXmX  h.KXLXi.h @. .] ` ` ` ^ ^ Q Q E E W n n n n n b n n G o 7 =.UXUXUX",
"UXUXUXW.K 0 =.` ` ` ` ` ` a ^.xXD.}.G.D.N.N.b.>.=.%.Z PXKXjX4.uXGXGX&XC 0 x [ ` ^ Q E ! Q R W T W V e n n n n n n n - = $.h.UXUX",
"UXUX_.P.0 D ] ` ^ ^ ^ ^ / W sX.XD.D.B.N.b.-.-.=.>.z # DXZXBXGXFXMXBXFXDXyXw.8 l ` Q E E R T T T F D b n n n n b n n D o j s.UXUX",
"UXUXF.=.c ' ^ Q ^ Q Q Q a ^.qX>.N.N.>.-.-.=.=.>.l # yXVXlXlXMXMXMXMXvXMXAXFX&XM j Q T R T T T F F F b b n n r n n n G - & X.UXUX",
"UXUXI.! 9 ..Q Q Q W W W s ,X}.>.b.-.=.-.=.;.-.l # jXVXdXkXNXlXpXpXzXMXbXdXdXAX&X8 E T F K D F D D F b m n n B n B B D 9 = ' 9.UX",
"UXUXY.V 9 ' W W W R W f s.5X#.-.-.=.-.=.*.*.#.X 2XbX0XhXxXQ.t.P J P u.-XxXcXfXt.f F F F D D D B B B n 9 D n y B n D D y = G h.UX",
"UX~.XXZ e Q W W T T F 7 c.OX$.-.=.;.*.*.*.=.i h.cX5X0X0Xt.d j k k j p q q.pXp.8 R F D D D B B B B n B 9 n D D D D D f G - n t.UX",
"UX`.@XZ r R T F F F G 7 _./.$.;.*...*.1..._ v >X6X3XwXt.a { E Q ) ~ E E 8 C V f J D B B D D n n n n D - e F D F F f f / 9 w t.UX",
"UX`.wXC d F F F F D D r `.N.*.*.*...] ] *.u q.eX'.4Xc.u ) ! ) f - - f R W g D D B D B B n n n n r n B 9 e j G f T T R ~ b = s.UX",
"UX,XfX4 d B D D D D B S `.=.@.*.] ] ] ] @.0 i.+X(.].P g E / y @ u.i.c y F D D B D n n n n n n n n n B - e E R R T j E ) y = g.UX",
"UX,XvX4 d B B D B B n S `.@.] ] ] ] ` ` [ 0 d. X(.).V G G R o !.#X#Xc.- f B B B B n n n B n n n m n n m 0 ~ R R E E / { F & C.UX",
"UX1XSX# s B B n B n n S ^._ ] ` ` ` ` Q ' 0 d.}.G.Z.V R G r C  XS.F.(.M r B n B n n n n n n n n n n D m e ' E ~ ~ ~ ~ [ F 8 A.UX",
"UX1XGX# p B n n n n r S ^.] ` ` ` ^ Q Q ) 0 d.}.G.A.M f F F X C..X.XC.- D n n n b n n b b n n n B B F m e _ ~ ) ~ ) ) @.o.i A.UX",
"UX1XJXC * B n n n n r m ~. .` ^ ! Q W E ^ q y.}.S./.V t F F t c y.y.M r n n n n n n m n n n B B D F Q b V _ { { { ] ] @.T T A.UX",
"UX<XGX5.* n n n n n n ; c.n.E / E E R R R 9 Z  XS.|.t.- G n D r - - r n D n ; B n n n B B D D G W W ` b u @.] [ ] @.] #.K ' A.UX",
"UX:XFXw.: n n n n b n * c.g.G W W T T T F y c F.F.F./.2 ; F n B s n n F ; . @ w D n D D F F F W W Q ..b ! @.] [ ..@...=.! =.p.UX",
"UXz.VXu.  B n n n n n t s.A.a G T T F F F R X y..XS.}.Z.o = s D D D r   O f.H.o D D D F G W W ^ ^ ` ..0 ` *...*.*.*.*.=.! ,.a.UX",
"UXUXhXj.  D n n r n n r J c.f F T F F F D D r X /.U.S.}.H.4 o . . . o 4 Z.|.|.y.- G W W Q ^ ) ` ] *.! N :.*.*.*.=.=.=.;.! :.k.UX",
"UXUXOX[.@ g n n B B B B 7 f.} D F V D n B B F - 4 .XG.S.U.}.v.t.t.s.Z.|.U.S.}.).M R W ^ ^ ` X.] ..M.N K :.=.=.-.b.-.m.v.! >.UXUX",
"UXUX~.#Xc ; B D y D D D 7 g.f.7 B B B B B B n D = C  X/.F.F.}.|.}.}.G.F.F.}.H.A R ` ` ` ] ..*.*.=.;.3 ;.-.b.b.b.b.N.U.d.l d.UXUX",
"UXUXz.XXM = G D F y F f F g f.D y B B B n n n n B = 2 F.F.G.}.G.S.S.}.}.H.y.V G ' ` ] ....*.*.-.K.V M L.b.b.N.S.S.F.(.U _ i.UXUX",
"UXUXUXm.( X G f f R F T R a d.g.t B n n n n n n b s . H.}.A.y.S.F.G.C.P V D ) ] ] ..*.*.=.=.-.>.<.2 n.D.F.F.F.F.). X`.F [ *XUXUX",
"UXUXUXc.2.q r R f T T j j W j d.S t n n n n n n n n - t..Xv.% Z |./.M d ' ..] ..*.*.=.-.-.-.>.W.3 r.}.F././.(.(.'.4X!.a P UXUXUX",
"UXUXUXx.>.u q ' R j R R ~ ! ~ { g.m r n m n n n B D D - Z P - Z .XF.P { ..*.*.*.=.=.-.>.>.>.W.I 4 oX).(.(.'.].].3XqXA k w.UXUXUX",
"UXUXUXUXd.$.q R ~ E Q ~ ~ ~ ) k X.e.; n n n n B D D F / f F W M Z. X} { *.*.=.-.-.>.>.N.m.T.+.6 @X@X'.].3X3X3X5XgX_.* H UXUXUXUX",
"UXUXUXUX&X#.8 0 @.~ ~ ) { ) { ] _ | A m B B D D F R W W ^ ' [ Q V t.U =.=.-.-.>.b.m.M.M.R.+.+ {.4XOX3X5X5X9X9XrXnXZ a 4.UXUXUXUX",
"UXUXUXUXUXt.z q E { ) ] { ] [ [ [ @.| M n R F W W Q ^ ` `  .] =.*.!  .-.-.>.>.m.M.N.D.R.I + >XtX5X9X9X9X0XsX0XZXz.* S UXUXUXUXUX",
"UXUXUXUXUXUX` 7 0 #.[ ] [ ..[ @.....=.&.b y ) ^ ^ ` ' X...*.*.=.=.>.>.>.>.>.M.V.V.E.W.5 3.wXrX9X0XqXsXsXdXsXNXCX= p 7.UXUXUXUXUX",
"UXUXUXUXUXUXh./ & K :...@...*.*.*.*.=.>.;.Y 0 E *...[ *.*.=.=.-.-.>.>.N.B.V.D.R.T.I 6 0.hXsX0XsXsXdXdXkXkXMXFXC > q.UXUXUXUXUXUX",
"UXUXUXUXUXUXUXt.d o ] :...*.=.*.-.-.-.b.N.B.y.Y N j @.,.<.>.>.M.m.M.M.P.T.T.J.Y 6 8.<XbXfXsXdXkXkXlXlXlXvXGXh.* A UXUXUXUXUXUXUX",
"UXUXUXUXUXUXUXUXs.* X ;.m.*.-.-.b.b.b.b.S.S.U.}.p.r.L Y K ( 1.;.<.;.+.U I 6.4.0.2XNXxXdXdXlXlXlXlXvXMXMXJX&X* F 8.UXUXUXUXUXUXUX",
"UXUXUXUXUXUXUXUX7.} * @ V.M.b.N.N.S.S.F.F././.(..X4X{.!.x.a.u.r.u.u.u.0.l.;XlXNXxXxXlXlXMXlXMXMXMXMXBXJXyX: ^ 7.UXUXUXUXUXUXUXUX",
"UXUXUXUXUXUXUXUXUX0.} * 2 H.U.S.F.F././.(.(.'.'.OXOX3XeXtXtXsXsXfXdXbXNXNXxXlXkXvXvXvXvXMXBXMXBXBXZXJX;X& ` 3.UXUXUXUXUXUXUXUXUX",
"UXUXUXUXUXUXUXUXUXUX3.X.p c Z.+X(.(.'.'.].].3X5X5X9X9X0X0XsXsXsXdXdXkXkXlXlXlXlXMXMXMXBXBXBXVXVXFXJX%X8 ..4.UXUXUXUXUXUXUXUXUXUX",
"UXUXUXUXUXUXUXUXUXUXUX7.C.h 0 x.6X6X].5X5X5X9X9X0XqXsXsXdXdXkXkXlXxXvXvXMXMXBXBXBXBXVXVXVXVXVXJXPXu.p n.*XUXUXUXUXUXUXUXUXUXUXUX",
"UXUXUXUXUXUXUXUXUXUXUXUXUX^.:.a u.>XgXqXwX0XqXsXdXsXdXkXkXlXlXvXvXMXMXBXBXBXBXBXBXZXSXVXVXGXJXyXM x )., UXUXUXUXUXUXUXUXUXUXUXUX",
"UXUXUXUXUXUXUXUXUXUXUXUXUXUXu.I.O.Y z.jXNXxXdXkXkXlXlXvXlXMXMXMXBXBXBXBXBXVXVXSXVXVXVXGXJXmXi.i -.z.UXUXUXUXUXUXUXUXUXUXUXUXUXUX",
"UXUXUXUXUXUXUXUXUXUXUXUXUXUXUX7.Z.2.z U -XjXAXZXNXlXMXMXMXBXBXBXVXVXVXVXVXVXVXZXFXJXHXiXx.u _ H.7.UXUXUXUXUXUXUXUXUXUXUXUXUXUXUX",
"UXUXUXUXUXUXUXUXUXUXUXUXUXUXUXUXUXh.J.%.x K j.yXDXGXGXGXAXAXAXZXZXAXAXFXGXJXJXHXjX;Xu.u { H.h.UXUXUXUXUXUXUXUXUXUXUXUXUXUXUXUXUX",
"UXUXUXUXUXUXUXUXUXUXUXUXUXUXUXUXUXUXUX4.C.-.h p M i.;XuXmXCXSXHXSXSXSXCXiX;Xz.t.V l *.Z.h.UXUXUXUXUXUXUXUXUXUXUXUXUXUXUXUXUXUXUX",
"UXUXUXUXUXUXUXUXUXUXUXUXUXUXUXUXUXUXUXUXUX3.t.s.) a p > ; m v S Z M M b r g E ;.C.a.7.UXUXUXUXUXUXUXUXUXUXUXUXUXUXUXUXUXUXUXUXUX",
"UXUXUXUXUXUXUXUXUXUXUXUXUXUXUXUXUXUXUXUXUXUXUXUX3.4.q.e.J J H G } } } P i.i.4.3.UXUXUXUXUXUXUXUXUXUXUXUXUXUXUXUXUXUXUXUXUXUXUXUX",
"UXUXUXUXUXUXUXUXUXUXUXUXUXUXUXUXUXUXUXUXUXUXUXUXUXUXUXUXUX, < < < < 3.UXUXUXUXUXUXUXUXUXUXUXUXUXUXUXUXUXUXUXUXUXUXUXUXUXUXUXUXUX"
};
