/* XPM */
static char *c13bd42517b24e0aabb68734e9ce7be6[] = {
/* columns rows colors chars-per-pixel */
"32 32 256 2 ",
"   c #A66C18",
".  c #B26E18",
"X  c #AE7527",
"o  c #B67A22",
"O  c #C7780D",
"+  c #C9740B",
"@  c #D37A0A",
"#  c #C97716",
"$  c #D47F12",
"%  c #BB8026",
"&  c #D4840C",
"*  c #DD8C09",
"=  c #DB860B",
"-  c #CD811C",
";  c #D48315",
":  c #D78813",
">  c #D3831C",
",  c #D68B1B",
"<  c #DB8C1B",
"1  c #DE9414",
"2  c #DE931F",
"3  c #D5901F",
"4  c #E18E0C",
"5  c #E39909",
"6  c #EA9C0C",
"7  c #E18F1C",
"8  c #E59915",
"9  c #E1951C",
"0  c #E39D1E",
"q  c #E59515",
"w  c #EFAE09",
"e  c #FDB300",
"r  c #EAA31C",
"t  c #EAAA1D",
"y  c #E5A318",
"u  c #F6AD19",
"i  c #F0A412",
"p  c #E7B21E",
"a  c #FAB81D",
"s  c #CC8522",
"d  c #CE8C29",
"f  c #C38E29",
"g  c #D68A21",
"h  c #DA8D22",
"j  c #D69424",
"k  c #DD9323",
"l  c #DE9A24",
"z  c #D3962E",
"x  c #D99429",
"c  c #C3893C",
"v  c #C99331",
"b  c #DB9432",
"n  c #DC9D32",
"m  c #DC9B39",
"M  c #D29C37",
"N  c #E19523",
"B  c #E49C23",
"V  c #E99D25",
"C  c #DFA62C",
"Z  c #DBA234",
"A  c #D9A23B",
"S  c #DAAB39",
"D  c #D9B238",
"F  c #E5A124",
"G  c #EAA426",
"H  c #ECA924",
"J  c #E4A32A",
"K  c #ECA529",
"L  c #EDAB2A",
"P  c #E3AD26",
"I  c #F2AD25",
"U  c #F1AD2A",
"Y  c #EDB122",
"T  c #EBBA2D",
"R  c #EBB62C",
"E  c #F5B325",
"W  c #F9B327",
"Q  c #FDBD24",
"!  c #F3B32B",
"~  c #F8B52D",
"^  c #F5BB2C",
"/  c #FABC2C",
"(  c #F6B926",
")  c #E3AD36",
"_  c #E4A53C",
"`  c #E4AC3A",
"'  c #E7A833",
"]  c #ECBA36",
"[  c #E9B23D",
"{  c #EDBC3D",
"}  c #E8B337",
"|  c #F7BA31",
" . c #FBBE31",
".. c #F6BE3C",
"X. c #EFC02B",
"o. c #FFC224",
"O. c #FDC42A",
"+. c #FAC92B",
"@. c #EDC533",
"#. c #E4C738",
"$. c #EDC43A",
"%. c #E4CA3E",
"&. c #EDCC3C",
"*. c #FEC433",
"=. c #F4CB33",
"-. c #FFCA34",
";. c #F5C339",
":. c #FCC43A",
">. c #FFCC39",
",. c #FCD235",
"<. c #FFD33B",
"1. c #F3D034",
"2. c #B2884D",
"3. c #B99049",
"4. c #BA8F51",
"5. c #BE9151",
"6. c #BC9B6D",
"7. c #C38D42",
"8. c #CC9B56",
"9. c #D6A743",
"0. c #DEA948",
"q. c #DCAC44",
"w. c #CEB84E",
"e. c #DDBE4B",
"r. c #D8AC54",
"t. c #CEB650",
"y. c #E4AE43",
"u. c #E7AC47",
"i. c #E4B447",
"p. c #EABA49",
"a. c #E3BA47",
"s. c #F0B847",
"d. c #ECBD54",
"f. c #E7BF5D",
"g. c #E3B552",
"h. c #F5BF54",
"j. c #D5AE6B",
"k. c #C7B97F",
"l. c #D0BA78",
"z. c #E8BC63",
"x. c #E1BA71",
"c. c #EFC442",
"v. c #EBC44D",
"b. c #E6C944",
"n. c #F1CC42",
"m. c #FFCE42",
"M. c #F9C54C",
"N. c #E7D04A",
"B. c #FFD442",
"V. c #FEDA44",
"C. c #FFD74D",
"Z. c #FFDA4A",
"A. c #F0D043",
"S. c #E3CB5C",
"D. c #E8C55C",
"F. c #F8C751",
"G. c #F3CD54",
"H. c #FBCB54",
"J. c #F5CD59",
"K. c #F3C559",
"L. c #EFD15C",
"P. c #E6D358",
"I. c #FCD354",
"U. c #FFDB54",
"Y. c #F3D25E",
"T. c #FED55A",
"R. c #FFDC5C",
"E. c #FFE444",
"W. c #FFE34B",
"Q. c #FFE752",
"!. c #FFE058",
"~. c #FFEA52",
"^. c #D7C069",
"/. c #DFC46E",
"(. c #DFCA7B",
"). c #EECB63",
"_. c #EBC46D",
"`. c #E3C96A",
"'. c #ECCD6E",
"]. c #EACB66",
"[. c #FFD962",
"{. c #FBD36F",
"}. c #F4D766",
"|. c #E5C675",
" X c #F3CE78",
".X c #EDDB72",
"XX c #FEDC73",
"oX c #F6DC77",
"OX c #FFE465",
"+X c #FFE866",
"@X c #FFEB6D",
"#X c #FFE469",
"$X c #FFF36D",
"%X c #FFE571",
"&X c #FFEA70",
"*X c #FDE57E",
"=X c #FFEC7E",
"-X c #FFF570",
";X c #D7BC8C",
":X c #DBC686",
">X c #DEC39A",
",X c #E2C889",
"<X c #F2CD85",
"1X c #EFD782",
"2X c #EFDE87",
"3X c #EFDE89",
"4X c #EBD288",
"5X c #F7DA87",
"6X c #F3D38A",
"7X c #FBDF88",
"8X c #E4CA97",
"9X c #E4D391",
"0X c #F3D591",
"qX c #FDE485",
"wX c #FFED85",
"eX c #FFE38D",
"rX c #FFED8F",
"tX c #F2E088",
"yX c #FFFF86",
"uX c #FEE793",
"iX c #FEEA93",
"pX c #F6E29A",
"aX c #FFF39F",
"sX c #FFF494",
"dX c #D2C7A2",
"fX c #DAD0A2",
"gX c #E9DAA2",
"hX c #F0DDAE",
"jX c #EEDCB1",
"kX c #EFE6AC",
"lX c #F2E2AD",
"zX c #FAE7A7",
"xX c #FFF2A6",
"cX c #FFF9A4",
"vX c #FFFCAC",
"bX c #FCECB5",
"nX c #F6EABC",
"mX c #FFEFBC",
"MX c #FFF2B3",
"NX c #FFFCB6",
"BX c #FFF2BD",
"VX c #FFFABB",
"CX c #FFF4C3",
"ZX c #FFFBC5",
"AX c #F7F1CE",
"SX c #FDF5CB",
"DX c #FFFACB",
"FX c #FAF6D4",
"GX c #FFFCD2",
"HX c #FEFEDA",
"JX c #FEFFE5",
"KX c #FFFFEC",
"LX c #FFFFF3",
"PX c #F5FFFF",
"IX c #F5F7F2",
"UX c None",
/* pixels */
"UXUXUXUXUXUXUXUXUXUXUXUXUXUXUXUXUXUXUXUXUXUXUXUXUXUXUXUXUXUXUXUX",
"UXUXUXUXUXUXUXUXUXUXUXfX9XtX.X.X}.L.Y.S.^.UXUXUXUXUXUXUXUXUXUXUX",
"UXUXUXUXUXUXUXUXdXgX2X.XP.N.A.A.A.&.$.$.@.@.b.;XUXUXUXUXUXUXUXUX",
"UXUXUXUXUXUXUXkX2XS.%.Z.~.~.W.W.V.V.V.<.>.P p ;.4XUXUXUXUXUXUXUX",
"UXUXUXUXUXUXaX].#.W.Q.Z.V.<.<.-.-.*.-.:.*.-.-.r p.MXUXUXUXUXUXUX",
"UXUXUXUXUXcXe.1.W.B.<.<.O.Q *.:.:.*.( / | | ~  .i 0.BXUXUXUXUXUX",
"UXUXUXUXqXD 1.V.<.>.o.Q H.qXiXrXqX%XT...U U ! U ! 6 m pXUXUXUXUX",
"UXUXUXuX{ +.<.-.*.a M.iXNXvXsXwX@XOXR.C.:.! G K K K 4 ` 1XUXUXUX",
"UXUXgXc.Y >.:.O.a {.VXvXwX%X#XW.+.-.>.-.,.:.L B V B V $ Y 9XUXUX",
"UXUXY.P -. . .u {.NXwX%X#XV.+.$.;XK.O.*.|  . .F h k N h & ] UXUX",
"UXUX^ H  .| u h.cX@XOXU.<.v.r.j.PX[ e / ! ! U U N g h h - 5 :XUX",
"UXL.t ~ ! I K 7X+XZ.m.<.w >XIXjXKX8X0.r Y L K K l g h h g = 9.UX",
"UX{ 0 ~ L 8 d.%X>.>.>.a r.nXHXGXnXJXJXx.q V B B k g h h N $ x UX",
"UX{ k L G 9 K.V.-.-.O.Z hXNX_.[ ) g.lX_.1 B l k k g < N N < < UX",
"UXg.< V B b H.-.*.*.r f.vXd.5 6 * 4 x B B N k k h , 2 B V 0 : UX",
").x.: B < m F.o.| / l ).%XF 8 A D.n 1 2 h g h g h > 9 H H L B 4.",
"_.,X@ N , b M.E U E x J.I.l ; i.yXy.; h g g h g N g F E E E ! 3.",
"6X,X+ h , b s.u L I j v.OXx < x M k > > h h g N K l G / / E ( UX",
"UX,X# h h g u.H F V , ` -Xp.# $ @ + v z < N B K ~ J ! O.*.| | UX",
"UX|.- 7 h > _ ' B l 7 s J.$Xi.d d M @XJ., K U ~  .P *.-.>.-.] UX",
"UX).k 7 9 9 ' _ < k h > s J.$X+XT.%XY.` U ~  .<.T ) B.m.U.>.q.UX",
"UX'.t < V F r _ h h h k # A L.i.OXy.G E *.-.>.<.D I.T.[.=X..8.UX",
"UXUXP q I L t ~ m $ h h N k j z ).L / :.:.<.E.D D.%XXXrXqXj UXUX",
"UXUXz.5 E W W /  .x < V G I W ^ } ;.,.<.W.E.D /.rXeXuXZXy.c UXUX",
"UXUXUXj y -./ O.-.:.C B ( O.-.>.,.<.W.E.%.t.,XxXxXzXGX0XO UXUXUX",
"UXUXUXUX& T <.-.>.B.Z.a.D T T =.1.&.b.w.l.kXNXbXbXHXFX& 6.UXUXUX",
"UXUXUXUX8.& { !.C.T.[.%XoX'.`.`.(.(.,XhXZXBXCXCXKXAXJ 7.UXUXUXUX",
"UXUXUXUXUXc F G.qXqXqXeXiXxXMXBXVXZXDXDXCXSXHXLXnX[   UXUXUXUXUX",
"UXUXUXUXUXUX5.] T.pXCXBXMXbXbXCXSXSXDXGXJXLXFX5X) 2.UXUXUXUXUXUX",
"UXUXUXUXUXUXUXUXS n.XXpXFXJXKXLXKXLXKXHXnX7Xd.v UXUXUXUXUXUXUXUX",
"UXUXUXUXUXUXUXUXUXUXf n u.z.<X<X6X6X Xz.9.f UXUXUXUXUXUXUXUXUXUX",
"UXUXUXUXUXUXUXUXUXUXUXUXUXX . o % o X UXUXUXUXUXUXUXUXUXUXUXUXUX"
};
